<svg width="2535" height="445" viewBox="0 0 2535 445" fill="none"
    xmlns="http://www.w3.org/2000/svg">
    <path d="M475.471 130.872H510.804V314.539H475.471V130.872Z" fill="black"/>
    <path d="M700.666 202.205V314.539H665.332V208.539C665.332 179.539 647.999 162.205 619.999 162.539C593.666 162.539 574.332 181.872 573.999 203.539V314.539H538.666V130.872H571.999V157.205C583.999 141.872 603.999 130.872 629.999 130.872C673.999 130.872 700.666 159.205 700.666 202.205Z" fill="black"/>
    <path d="M864.927 222.539C864.927 187.205 842.261 162.205 808.594 162.205C776.594 162.205 752.594 188.205 752.594 222.539C752.594 257.539 776.261 283.205 808.594 283.205C841.927 283.205 864.927 258.205 864.927 222.539ZM898.927 66.8719V314.539H866.261V283.205C852.594 302.872 830.927 314.539 804.261 314.539C753.927 314.539 717.594 275.205 717.594 222.539C717.594 170.539 753.261 131.205 803.261 131.205C828.594 131.205 849.594 141.539 863.594 159.205V66.8719H898.927Z" fill="black"/>
    <path d="M1084.52 130.872V314.539H1051.52V288.205C1039.52 303.539 1019.52 314.539 995.19 314.539C950.19 314.539 925.857 284.539 925.857 243.539V130.872H960.857V239.205C960.857 265.539 977.857 283.205 1004.86 282.872C1031.52 282.872 1049.19 263.872 1049.52 243.205V130.872H1084.52Z" fill="black"/>
    <path d="M1098.69 270.539L1130.69 258.205C1136.02 275.539 1151.02 285.539 1173.69 285.539C1193.35 285.539 1206.02 277.205 1206.02 262.872C1206.02 224.539 1107.02 241.872 1107.02 181.539C1107.02 150.205 1133.02 131.205 1173.02 131.205C1206.02 131.205 1229.69 144.539 1237.35 168.205L1205.35 180.539C1200.02 166.205 1188.69 159.205 1172.35 159.205C1154.35 159.205 1144.35 167.205 1144.35 179.539C1144.35 215.539 1243.35 195.872 1243.35 260.205C1243.35 294.539 1215.35 314.539 1172.69 314.539C1135.35 314.539 1108.02 299.205 1098.69 270.539Z" fill="black"/>
    <path d="M1342.18 283.539C1321.18 283.539 1309.52 271.539 1309.52 249.539V174.333V173V165V163.667V161.205H1359.85V130.872H1310.85V85.5386H1276.52V113.872C1276.52 125.205 1271.52 130.872 1260.18 130.872H1243.18V161.205H1274.52V163.667V165V173V174.333V253.205C1274.52 290.872 1295.52 314.539 1335.18 314.539H1361.85V283.539H1342.18Z" fill="black"/>
    <path d="M1458.58 130.872V163.872C1427.25 164.205 1406.58 182.872 1406.58 207.539V314.539H1371.25V130.872H1404.58V157.205C1416.25 142.205 1435.58 130.872 1458.58 130.872Z" fill="black"/>
    <path d="M1467.67 130.872H1503.01V314.539H1467.67V130.872Z" fill="black"/>
    <path d="M1667.4 222.539C1667.4 187.205 1644.74 162.205 1611.07 162.205C1579.07 162.205 1555.07 188.205 1555.07 222.539C1555.07 257.539 1578.74 283.205 1611.07 283.205C1644.4 283.205 1667.4 258.205 1667.4 222.539ZM1701.4 130.872V314.539H1668.74V281.872C1655.4 302.205 1634.07 314.539 1606.74 314.539C1556.4 314.539 1520.07 275.205 1520.07 222.539C1520.07 170.539 1556.74 133.205 1606.74 133.205C1634.07 133.205 1655.4 144.539 1668.74 164.539V130.872H1701.4Z" fill="black"/>
    <path d="M1729.67 66.8719H1765V314.539H1729.67V66.8719Z" fill="black"/>
    <path d="M1781.56 223.205C1781.56 171.205 1820.89 130.872 1874.23 130.872C1921.89 130.872 1951.23 162.205 1958.89 188.539L1914.89 205.872C1909.89 187.539 1895.89 174.872 1875.23 174.872C1850.56 174.872 1831.23 193.539 1831.23 222.872C1831.23 252.205 1850.56 270.872 1875.23 270.872C1896.23 270.872 1910.89 258.205 1915.89 240.205L1959.89 257.872C1952.23 283.539 1922.89 314.872 1874.23 314.872C1821.56 314.872 1781.56 275.205 1781.56 223.205Z" fill="#6328E5"/>
    <path d="M2099.22 222.539C2099.22 194.539 2081.22 174.872 2053.89 174.872C2026.56 174.872 2008.22 194.539 2008.22 222.872C2008.22 250.872 2026.56 270.872 2053.89 270.872C2080.56 270.872 2099.22 250.872 2099.22 222.539ZM1958.56 222.872C1958.56 170.205 1997.89 130.872 2053.56 130.872C2108.89 130.872 2148.56 170.205 2148.56 222.872C2148.56 275.205 2108.89 314.872 2053.56 314.872C1997.89 314.872 1958.56 275.205 1958.56 222.872Z" fill="#6328E5"/>
    <path d="M2292.92 222.872C2292.92 194.205 2274.59 174.205 2247.59 174.205C2221.25 174.205 2202.25 194.872 2202.25 222.872C2202.25 250.872 2221.25 271.205 2247.59 271.205C2274.59 271.205 2292.92 251.539 2292.92 222.872ZM2340.25 66.8721V314.539H2294.59V292.539C2281.59 306.539 2263.25 314.872 2240.59 314.872C2189.92 314.872 2153.25 275.205 2153.25 222.872C2153.25 170.205 2188.92 130.872 2239.25 130.872C2260.25 130.872 2277.92 137.872 2290.92 150.205V66.8721H2340.25Z" fill="#6328E5"/>
    <path d="M2488.18 205.539C2483.52 182.539 2468.18 168.205 2445.52 168.205C2422.85 168.205 2406.18 181.539 2401.18 205.539H2488.18ZM2448.85 273.872C2470.52 273.872 2481.52 266.205 2489.18 252.205L2526.85 277.205C2513.18 297.205 2490.52 314.872 2447.52 314.872C2390.52 314.872 2353.52 275.205 2353.52 222.872C2353.52 171.872 2393.85 130.872 2444.18 130.872C2500.85 130.872 2534.52 175.205 2534.52 219.205C2534.52 226.872 2534.18 233.539 2533.52 237.872H2401.85C2407.52 260.872 2425.52 273.872 2448.85 273.872Z" fill="#6328E5"/>
    <path d="M191.012 358.657C172.827 358.657 155.471 355.081 139.587 348.627L75.2696 412.705C109.046 433.183 148.666 445.001 191.012 445.001C299.1 445.001 389.492 368.099 409.984 266.334H320.412C302.056 319.971 250.984 358.657 191.012 358.657Z" fill="black"/>
    <path d="M120.912 105.663L58.5173 43.5017C35.1027 60.7497 15.1707 82.4337 0 107.31L64.34 171.41L115.621 222.5L64.34 273.591L0 337.69C15.1707 362.566 35.1027 384.251 58.5173 401.499L120.912 339.338L238.187 222.5L120.912 105.663Z" fill="#6328E5"/>
    <path d="M191.012 9.20892e-05C148.666 9.20892e-05 109.046 11.8174 75.2696 32.2961L139.587 96.3721C155.471 89.9188 172.827 86.3428 191.012 86.3428C251.356 86.3428 302.683 125.512 320.744 179.667H410.176C390.078 77.4054 299.454 9.20892e-05 191.012 9.20892e-05Z" fill="black"/>
</svg>
